<?xml version="1.0" encoding="UTF-8"?><svg version="1.1" viewBox="0 0 64 64" xmlns="http://www.w3.org/2000/svg" xmlns:xlink="http://www.w3.org/1999/xlink"><!--Generated by IJSVG (https://github.com/curthard89/IJSVG)--><path d="M24.9994,18.004l-1.23435e-07,0.000348991c-0.00400528,11.5967 9.39374,21.0009 20.9904,21.005c0.000167525,5.78601e-08 0.00033505,1.13715e-07 0.000502576,1.67566e-07l-6.09025e-07,1.22333e-08c1.92927,-0.0387527 3.84352,-0.348447 5.6866,-0.919999l6.30383e-08,-1.78628e-08c0.96501,-0.273449 1.96898,0.287172 2.24243,1.25218c0.120638,0.425736 0.0816906,0.880869 -0.109527,1.27992l4.74258e-07,-1.03327e-06c-5.28663,11.5181 -18.9096,16.5697 -30.4276,11.283c-11.5181,-5.28663 -16.5697,-18.9096 -11.283,-30.4276c2.29537,-5.00097 6.31135,-9.01062 11.3159,-11.2981l-1.8109e-07,8.68177e-08c0.905433,-0.434081 1.99132,-0.0519756 2.4254,0.853457c0.191448,0.399334 0.230561,0.854815 0.109996,1.28094l3.33946e-07,-1.05705e-06c-0.582247,1.843 -0.902415,3.75873 -0.951099,5.6909Z" fill="#e3e3e3" fill-rule="evenodd"></path></svg>