<?xml version="1.0" encoding="UTF-8"?><svg version="1.1" viewBox="0 0 64 64" xmlns="http://www.w3.org/2000/svg" xmlns:xlink="http://www.w3.org/1999/xlink"><!--Generated by IJSVG (https://github.com/curthard89/IJSVG)--><path d="M58.9822,33.2963l-7.5022,1.8757l-6.92782e-08,1.73169e-08c-0.718722,0.179653 -1.15572,0.90793 -0.976069,1.62665c0.0701718,0.280729 0.229242,0.531241 0.453469,0.714148l2.3576,1.9229l9.54994e-09,7.78788e-09c0.574131,0.468198 0.660007,1.31317 0.191808,1.8873c-0.284961,0.349435 -0.726417,0.532326 -1.17501,0.486796l-3.0269,-0.3076l-3.57047e-08,-3.62108e-09c-0.737164,-0.0747611 -1.39536,0.462222 -1.47012,1.19939c-0.0291882,0.287803 0.0354304,0.577332 0.18422,0.825414l3.979,6.6313l3.38533e-08,5.65292e-08c0.380625,0.635579 0.173943,1.45938 -0.461636,1.84c-0.42432,0.254109 -0.954044,0.254109 -1.37836,-2.21132e-07l-6.6318,-3.9783l2.2815e-08,1.36954e-08c-0.635182,-0.381287 -1.45919,-0.175465 -1.84048,0.459717c-0.149015,0.248242 -0.21371,0.538035 -0.18442,0.826083l0.3074,3.0268l4.6685e-08,4.59663e-07c0.0748567,0.737043 -0.461952,1.39522 -1.19899,1.47007c-0.448569,0.0455583 -0.89002,-0.137286 -1.17501,-0.486676l-1.9227,-2.3581l6.33884e-08,7.77172e-08c-0.468281,-0.574135 -1.31333,-0.659946 -1.88746,-0.191665c-0.224251,0.182906 -0.383345,0.433423 -0.453539,0.714165l-1.8755,7.5026l4.3343e-09,-1.7348e-08c-0.17956,0.718688 -0.907733,1.15574 -1.62642,0.976179c-0.480723,-0.120106 -0.856073,-0.495455 -0.976178,-0.976178l-1.8757,-7.503l2.66852e-08,1.06695e-07c-0.179764,-0.718751 -0.908154,-1.15569 -1.62691,-0.975922c-0.280664,0.070196 -0.531116,0.229245 -0.713995,0.453422l-1.9229,2.3579l7.04139e-08,-8.63303e-08c-0.468283,0.574134 -1.31333,0.659943 -1.88746,0.19166c-0.349415,-0.284995 -0.532282,-0.726464 -0.486739,-1.17506l0.3076,-3.0268l6.55382e-08,-6.47568e-07c0.0745907,-0.737015 -0.46241,-1.39495 -1.19942,-1.46954c-0.287739,-0.0291211 -0.577184,0.0355403 -0.825176,0.184343l-6.6312,3.9786l1.67543e-07,-1.00335e-07c-0.635579,0.380625 -1.45938,0.173943 -1.84,-0.461636c-0.254109,-0.42432 -0.254109,-0.954044 -4.72455e-08,-1.37836l3.9788,-6.6313l1.52946e-08,-2.5484e-08c0.381234,-0.635214 0.175344,-1.45921 -0.45987,-1.84044c-0.248234,-0.148982 -0.538006,-0.213655 -0.82603,-0.184358l-3.0267,0.3076l4.9792e-08,-5.05804e-09c-0.737042,0.0748712 -1.39523,-0.461924 -1.4701,-1.19897c-0.0455739,-0.448635 0.137323,-0.890148 0.486798,-1.17513l2.3576,-1.9229l-1.4423e-08,1.17629e-08c0.574109,-0.468226 0.659944,-1.3132 0.191718,-1.88731c-0.182845,-0.224193 -0.43327,-0.383265 -0.713918,-0.453487l-7.5033,-1.876l-7.51832e-10,-1.87839e-10c-0.718688,-0.17956 -1.15574,-0.907733 -0.976178,-1.62642c0.120106,-0.480723 0.495455,-0.856073 0.976178,-0.976178l7.5028,-1.8757l4.66033e-08,-1.16607e-08c0.718679,-0.179823 1.15551,-0.908202 0.975687,-1.62688c-0.0702217,-0.280648 -0.229294,-0.531074 -0.453487,-0.713918l-2.3576,-1.9229l5.23846e-08,4.2718e-08c-0.574138,-0.46819 -0.660025,-1.31316 -0.191834,-1.8873c0.284986,-0.349476 0.726499,-0.532372 1.17513,-0.486798l3.0267,0.3076l2.06795e-08,2.10247e-09c0.737035,0.0749339 1.39527,-0.461805 1.4702,-1.19884c0.0292768,-0.287961 -0.0353746,-0.577667 -0.1843,-0.82586l-3.9793,-6.6312l-9.41034e-08,-1.57137e-07c-0.380625,-0.635579 -0.173943,-1.45938 0.461636,-1.84c0.42432,-0.254109 0.954044,-0.254109 1.37836,3.41632e-07l6.6322,3.9781l-1.36609e-07,-8.198e-08c0.635184,0.381177 1.45911,0.175264 1.84028,-0.45992c0.148942,-0.248194 0.2136,-0.53791 0.184316,-0.82588l-0.3076,-3.0267l-1.61085e-08,-1.58665e-07c-0.074834,-0.737101 0.462039,-1.3953 1.19914,-1.47014c0.448596,-0.0455436 0.890065,0.137324 1.17506,0.486739l1.9229,2.3576l-6.54192e-08,-8.0196e-08c0.46832,0.574103 1.31337,0.659857 1.88747,0.191537c0.224168,-0.182863 0.383218,-0.433293 0.453426,-0.713937l1.8757,-7.5023l-3.68919e-09,1.4766e-08c0.17956,-0.718688 0.907733,-1.15574 1.62642,-0.976179c0.480723,0.120106 0.856073,0.495455 0.976178,0.976178l1.8755,7.503l-5.13992e-08,-2.05521e-07c0.179755,0.718753 0.908139,1.1557 1.62689,0.975944c0.280722,-0.0702063 0.531217,-0.229301 0.714108,-0.453543l1.9227,-2.3576l5.6939e-09,-6.98065e-09c0.46826,-0.574081 1.31324,-0.659866 1.88732,-0.191606c0.349389,0.284986 0.532234,0.726437 0.486675,1.17501l-0.3074,3.0267l-6.00004e-08,5.94235e-07c-0.0744296,0.737142 0.462805,1.39505 1.19995,1.46948c0.287669,0.0290461 0.577024,-0.0356263 0.824954,-0.184382l6.631,-3.9788l-1.30963e-07,7.84287e-08c0.635579,-0.380625 1.45938,-0.173943 1.84,0.461636c0.254109,0.42432 0.254109,0.954044 3.43216e-09,1.37836l-3.979,6.6312l-7.79141e-08,1.29892e-07c-0.381109,0.635353 -0.175004,1.45936 0.460349,1.84047c0.248116,0.14883 0.537701,0.213454 0.825551,0.184232l3.0269,-0.3076l-3.78859e-09,3.84528e-10c0.737048,-0.0748081 1.39519,0.462043 1.47,1.19909c0.0455307,0.448592 -0.137361,0.890048 -0.486796,1.17501l-2.3572,1.9236l-3.24224e-08,2.64524e-08c-0.574024,0.468329 -0.659707,1.31332 -0.191378,1.88735c0.182969,0.224263 0.433567,0.38333 0.714378,0.453452l7.5026,1.8757l-3.611e-08,-9.02775e-09c0.718661,0.17967 1.1556,0.907911 0.975929,1.62657c-0.120179,0.480705 -0.495587,0.855997 -0.976329,0.976028Zm-26.9822,-16.2968l3.25983e-07,-1.30349e-11c-8.28427,0.000331195 -14.9997,6.71633 -14.9994,15.0006c0.000331195,8.28427 6.71633,14.9997 15.0006,14.9994c8.28384,-0.000331178 14.9991,-6.71566 14.9994,-14.9995l3.31148e-10,9.9674e-05c0,-8.28456 -6.71594,-15.0005 -15.0005,-15.0006Zm0,28l-5.58633e-07,-1.42109e-14c-7.1797,-3.13835e-07 -13,-5.8203 -13,-13c3.13835e-07,-7.1797 5.8203,-13 13,-13c7.1797,3.13835e-07 13,5.8203 13,13c-7.28306e-12,0.000166663 -3.21958e-09,0.000333327 -9.63687e-09,0.00049999l1.42109e-14,-5.58633e-07c0,7.1797 -5.8203,13 -13,13Z" fill="#e3e3e3" fill-rule="evenodd"></path></svg>